<?xml version="1.0" encoding="utf-8"?>
<!-- Generated by IcoMoon.io -->
<!DOCTYPE svg PUBLIC "-//W3C//DTD SVG 1.1//EN" "http://www.w3.org/Graphics/SVG/1.1/DTD/svg11.dtd">

<svg version="1.1" xmlns="http://www.w3.org/2000/svg" xmlns:xlink="http://www.w3.org/1999/xlink" width="488" height="56" viewBox="0 0 488 56">
<defs>
<g id="icon-mail">
	<path class="path1" d="M9.333 7h37.333q2.898 0 4.949 2.051t2.051 4.949v28q0 2.898-2.051 4.949t-4.949 2.051h-37.333q-2.898 0-4.949-2.051t-2.051-4.949v-28q0-2.898 2.051-4.949t4.949-2.051zM49 42v-25.484l-19.542 15.641q-0.62 0.51-1.458 0.51t-1.458-0.51l-19.542-15.641v25.484q0 0.966 0.684 1.65t1.65 0.684h37.333q0.966 0 1.65-0.684t0.684-1.65zM46.667 11.667h-37.333q-0.346 0-0.766 0.128l19.432 15.549 19.432-15.549q-0.419-0.128-0.766-0.128z"></path>
</g>
<g id="icon-bell">
	<path class="path1" d="M28 2.333q3.008 0 5.688 0.975t4.758 2.689 3.737 4.074 2.762 5.104 1.723 5.824q1.841 9.242 3.91 14.611t5.423 8.723h-21.401q0.401 1.148 0.401 2.333 0 2.898-2.051 4.949t-4.949 2.051-4.949-2.051-2.051-4.949q0-1.185 0.401-2.333h-21.401q3.354-3.354 5.423-8.723t3.91-14.611q0.62-3.081 1.723-5.824t2.762-5.104 3.737-4.074 4.758-2.689 5.688-0.975zM28 44.333q-0.966 0-1.65 0.684t-0.684 1.65 0.684 1.65 1.65 0.684 1.65-0.684 0.684-1.65-0.684-1.65-1.65-0.684zM28 7q-2.115 0-3.983 0.656t-3.199 1.677-2.47 2.452-1.85 2.78-1.285 2.88-0.848 2.525-0.456 1.941q-2.333 11.758-5.141 17.755h38.464q-2.807-5.997-5.141-17.755-0.182-0.948-0.456-1.941t-0.848-2.525-1.285-2.88-1.85-2.78-2.47-2.452-3.199-1.677-3.983-0.656z"></path>
</g>
<g id="icon-cog">
	<path class="path1" d="M28 0q2.898 0 4.949 2.051t2.051 4.949v1.203q0.857 0.292 2.060 0.839l0.839-0.839q2.060-2.060 4.958-2.060 2.88 0 4.94 2.060t2.060 4.94q0 2.898-2.060 4.958l-0.839 0.839q0.547 1.203 0.839 2.060h1.203q2.898 0 4.949 2.051t2.051 4.949-2.051 4.949-4.949 2.051h-1.203q-0.292 0.857-0.839 2.060l0.839 0.839q2.060 2.060 2.060 4.958 0 2.88-2.060 4.94t-4.94 2.060q-2.898 0-4.958-2.060l-0.839-0.839q-1.203 0.547-2.060 0.839v1.203q0 2.898-2.051 4.949t-4.949 2.051-4.949-2.051-2.051-4.949v-1.203q-0.857-0.292-2.060-0.839l-0.839 0.839q-2.060 2.060-4.94 2.060-2.898 0-4.949-2.060t-2.051-4.94q0-2.917 2.042-4.958l0.839-0.839q-0.547-1.203-0.839-2.060h-1.203q-2.898 0-4.949-2.051t-2.051-4.949 2.051-4.949 4.949-2.051h1.203q0.292-0.857 0.839-2.060l-0.839-0.839q-2.042-2.042-2.042-4.958 0-2.88 2.051-4.94t4.949-2.060q2.88 0 4.94 2.060l0.839 0.839q1.203-0.547 2.060-0.839v-1.203q0-2.898 2.051-4.949t4.949-2.051zM28 4.667q-0.966 0-1.65 0.684t-0.684 1.65v4.831q-4.083 0.583-7.456 3.081l-3.409-3.409q-0.693-0.693-1.641-0.693-0.966 0-1.65 0.684t-0.684 1.65q0 0.984 0.674 1.659l3.409 3.409q-2.497 3.372-3.081 7.456h-4.831q-0.966 0-1.65 0.684t-0.684 1.65 0.684 1.65 1.65 0.684h4.831q0.583 4.083 3.081 7.456l-3.409 3.409q-0.674 0.674-0.674 1.659 0 0.966 0.684 1.65t1.65 0.684q0.948 0 1.641-0.693l3.409-3.409q3.372 2.497 7.456 3.081v4.831q0 0.966 0.684 1.65t1.65 0.684 1.65-0.684 0.684-1.65v-4.831q4.083-0.583 7.456-3.081l3.409 3.409q0.693 0.693 1.659 0.693t1.65-0.684 0.684-1.65-0.693-1.659l-3.409-3.409q2.497-3.372 3.081-7.456h4.831q0.966 0 1.65-0.684t0.684-1.65-0.684-1.65-1.65-0.684h-4.831q-0.583-4.083-3.081-7.456l3.409-3.409q0.693-0.693 0.693-1.659t-0.684-1.65-1.65-0.684-1.659 0.693l-3.409 3.409q-3.372-2.497-7.456-3.081v-4.831q0-0.966-0.684-1.65t-1.65-0.684zM28 18.667q3.865 0 6.599 2.734t2.734 6.599-2.734 6.599-6.599 2.734-6.599-2.734-2.734-6.599 2.734-6.599 6.599-2.734zM28 23.333q-1.932 0-3.299 1.367t-1.367 3.299 1.367 3.299 3.299 1.367 3.299-1.367 1.367-3.299-1.367-3.299-3.299-1.367z"></path>
</g>
<g id="icon-head">
	<path class="path1" d="M28 0q3.81 0 7.027 1.878t5.095 5.095 1.878 7.027v7q0 2.917-1.13 5.523t-3.154 4.539q5.323 0.839 9.461 2.47t6.48 3.855 2.342 4.685v4.594q0 2.898-2.051 4.949t-4.949 2.051h-42q-2.898 0-4.949-2.051t-2.051-4.949v-4.612q0-2.461 2.342-4.685t6.471-3.855 9.452-2.452q-2.005-1.951-3.135-4.548t-1.13-5.514v-7q0-3.81 1.878-7.027t5.095-5.095 7.027-1.878zM28 35q-5.068 0-9.78 0.811t-8.212 2.27q-1.404 0.583-2.506 1.24t-1.677 1.185-0.866 0.921-0.292 0.629v4.612q0 0.966 0.684 1.65t1.65 0.684h42q0.966 0 1.65-0.684t0.684-1.65v-4.594q0-0.237-0.292-0.629t-0.866-0.921-1.677-1.185-2.506-1.258q-3.5-1.458-8.212-2.27t-9.78-0.811zM28 4.667q-3.865 0-6.599 2.734t-2.734 6.599v7q0 3.865 2.734 6.599t6.599 2.734 6.599-2.734 2.734-6.599v-7q0-3.865-2.734-6.599t-6.599-2.734z"></path>
</g>
<g id="icon-speech-bubble">
	<path class="path1" d="M9.333 2.333h37.333q2.898 0 4.949 2.051t2.051 4.949v25.667q0 2.898-2.051 4.949t-4.949 2.051h-18.667l-16.333 11.667v-11.667h-2.333q-2.898 0-4.949-2.051t-2.051-4.949v-25.667q0-2.898 2.051-4.949t4.949-2.051zM46.667 7h-37.333q-0.966 0-1.65 0.684t-0.684 1.65v25.667q0 0.966 0.684 1.65t1.65 0.684h7v7.273l10.172-7.273h20.161q0.966 0 1.65-0.684t0.684-1.65v-25.667q0-0.966-0.684-1.65t-1.65-0.684z"></path>
</g>
<g id="icon-power">
	<path class="path1" d="M44.497 13.836q3.227 3.227 4.995 7.419 1.841 4.339 1.841 9.078t-1.841 9.078q-1.768 4.193-4.995 7.419t-7.419 4.995q-4.339 1.841-9.078 1.841t-9.078-1.841q-4.193-1.768-7.419-4.995t-4.995-7.419q-1.841-4.339-1.841-9.078t1.841-9.078q1.768-4.193 4.995-7.419 0.674-0.674 1.641-0.674t1.659 0.674 0.693 1.641-0.693 1.659q-2.57 2.57-4.010 5.924-1.458 3.5-1.458 7.273t1.458 7.273q1.44 3.354 4.010 5.924t5.924 4.010q3.5 1.458 7.273 1.458t7.273-1.458q3.354-1.44 5.924-4.010t4.010-5.924q1.458-3.5 1.458-7.273t-1.458-7.273q-1.44-3.354-4.010-5.924-0.693-0.693-0.693-1.659t0.693-1.641 1.659-0.674 1.641 0.674zM28 2.333q0.966 0 1.65 0.684t0.684 1.65v23.333q0 0.966-0.684 1.65t-1.65 0.684-1.65-0.684-0.684-1.65v-23.333q0-0.966 0.684-1.65t1.65-0.684z"></path>
</g>
<g id="icon-menu">
	<path class="path1" d="M7 11.667h42q0.966 0 1.65 0.684t0.684 1.65-0.684 1.65-1.65 0.684h-42q-0.966 0-1.65-0.684t-0.684-1.65 0.684-1.65 1.65-0.684zM7 39.667h42q0.966 0 1.65 0.684t0.684 1.65-0.684 1.65-1.65 0.684h-42q-0.966 0-1.65-0.684t-0.684-1.65 0.684-1.65 1.65-0.684zM7 25.667h42q0.966 0 1.65 0.684t0.684 1.65-0.684 1.65-1.65 0.684h-42q-0.966 0-1.65-0.684t-0.684-1.65 0.684-1.65 1.65-0.684z"></path>
</g>
</defs>

<g fill="#ffffff">
	<use xlink:href="#icon-mail" transform="translate(0 0)"></use>
	<use xlink:href="#icon-bell" transform="translate(72 0)"></use>
	<use xlink:href="#icon-cog" transform="translate(144 0)"></use>
	<use xlink:href="#icon-head" transform="translate(216 0)"></use>
	<use xlink:href="#icon-speech-bubble" transform="translate(288 0)"></use>
	<use xlink:href="#icon-power" transform="translate(360 0)"></use>
	<use xlink:href="#icon-menu" transform="translate(432 0)"></use>
</g>

</svg>
